<svg width="53" height="57" viewBox="0 0 53 57" fill="none" xmlns="http://www.w3.org/2000/svg">
<rect x="-0.000366211" y="0.862503" width="52.0355" height="55.6753" fill="#F5E2A0"/>
<circle cx="25.9069" cy="29.2755" r="11.1595" stroke="#101010" stroke-width="5.8598"/>
<rect x="30.0088" y="40.7685" width="5.85251" height="5.49124" rx="1.15605" transform="rotate(-32 30.0088 40.7685)" fill="#101010"/>
<rect x="36.5156" y="35.6914" width="5.85251" height="5.49124" rx="1.15605" transform="rotate(-72 36.5156 35.6914)" fill="#101010"/>
<rect x="38.2365" y="27.6198" width="5.85251" height="5.49124" rx="1.15605" transform="rotate(-112 38.2365 27.6198)" fill="#101010"/>
<rect x="34.3664" y="20.3303" width="5.85251" height="5.49124" rx="1.15605" transform="rotate(-152 34.3664 20.3303)" fill="#101010"/>
<rect x="26.7164" y="17.2337" width="5.85251" height="5.49124" rx="1.15605" transform="rotate(168 26.7164 17.2337)" fill="#101010"/>
<rect x="18.8654" y="19.7791" width="5.85251" height="5.49124" rx="1.15605" transform="rotate(128 18.8654 19.7791)" fill="#101010"/>
<rect x="14.4877" y="26.7754" width="5.85251" height="5.49124" rx="1.15605" transform="rotate(88 14.4877 26.7754)" fill="#101010"/>
<rect x="15.6309" y="34.949" width="5.85251" height="5.49124" rx="1.15605" transform="rotate(48 15.6309 34.949)" fill="#101010"/>
<rect x="21.761" y="40.4752" width="5.85251" height="5.49124" rx="1.15605" transform="rotate(8 21.761 40.4752)" fill="#101010"/>
</svg>
