<svg width="29" height="29" viewBox="0 0 29 29" fill="none" xmlns="http://www.w3.org/2000/svg">
<rect x="-0.000183105" width="29" height="29" fill="#F5E2A0"/>
<path d="M14.4896 26.0583H8.35893L8.37065 24.3111L7.45633 23.5138L7.36255 21.8956C11.2894 19.2308 12.4958 17.2013 12.3093 13.195C9.8247 13.1951 10.1833 13.0929 9.17947 12.3976C10.6528 11.319 11.241 11.1027 12.0983 11.0374C8.62865 9.38408 8.46464 3.00514 14.4427 3.00519C20.4207 3.00514 20.3154 9.39576 16.8457 11.0491C17.703 11.1144 18.2912 11.3307 19.7645 12.4093C18.7607 13.1046 19.1193 13.2068 16.6347 13.2067C16.4482 17.2129 17.6546 19.2425 21.5815 21.9073L21.4877 23.5254L20.5734 24.3228L20.5851 26.07L14.4896 26.0583Z" fill="black"/>
</svg>
