<svg width="99" height="99" viewBox="0 0 99 99" fill="none" xmlns="http://www.w3.org/2000/svg">
<rect x="-0.000366211" y="0.244141" width="98.3498" height="98.3498" fill="#202020"/>
<path d="M79.5315 29.0387H69.4127V25.7418C69.4127 24.8675 69.4127 22.4451 69.4127 22.4451C69.4127 22.4451 66.9343 22.445 66.0397 22.445H32.31C31.4155 22.445 28.9371 22.4451 28.9371 22.4451C28.9371 22.4451 28.9371 24.8675 28.9371 25.7418V29.0387H18.8182C17.9236 29.0387 15.4456 29.0387 15.4456 29.0387C15.4456 29.0387 15.4452 31.4611 15.4452 32.3355V42.226C15.4452 56.4353 21.5165 65.007 31.7029 65.3037C33.1892 67.8158 35.2227 69.9774 37.6592 71.6354C40.0958 73.2934 42.8757 74.4071 45.8019 74.8975V81.7879H36.7846C34.5133 84.3629 34.5133 84.2744 34.5133 88.3816H63.8365C63.8365 84.3854 63.8365 84.3629 61.5651 81.7879H52.5478V74.8975C55.474 74.4071 58.2539 73.2934 60.6905 71.6354C63.1271 69.9774 65.1606 67.8158 66.6469 65.3037C76.7658 64.9741 82.9045 56.4023 82.9045 42.226V32.3355C82.9045 31.4611 82.9045 29.0387 82.9045 29.0387C82.9045 29.0387 80.4261 29.0387 79.5315 29.0387ZM22.1911 42.226V35.6323H28.9371V58.1496C22.9332 55.677 22.1911 46.5119 22.1911 42.226ZM69.4127 58.1496V35.6323H76.1586V42.226C76.1586 46.5119 75.4166 55.677 69.4127 58.1496Z" fill="#F5E2A0"/>
<circle cx="49.0078" cy="47.605" r="8.63361" stroke="#202020" stroke-width="4.53348"/>
<rect x="52.1803" y="56.4951" width="4.52784" height="4.24834" rx="0.894388" transform="rotate(-32 52.1803 56.4951)" fill="#202020"/>
<rect x="57.2147" y="52.5674" width="4.52784" height="4.24834" rx="0.894388" transform="rotate(-72 57.2147 52.5674)" fill="#202020"/>
<rect x="58.5454" y="46.3239" width="4.52784" height="4.24834" rx="0.894388" transform="rotate(-112 58.5454 46.3239)" fill="#202020"/>
<rect x="55.5509" y="40.6841" width="4.52784" height="4.24834" rx="0.894388" transform="rotate(-152 55.5509 40.6841)" fill="#202020"/>
<rect x="49.6328" y="38.2886" width="4.52784" height="4.24834" rx="0.894388" transform="rotate(168 49.6328 38.2886)" fill="#202020"/>
<rect x="43.5594" y="40.2578" width="4.52784" height="4.24834" rx="0.894388" transform="rotate(128 43.5594 40.2578)" fill="#202020"/>
<rect x="40.1715" y="45.6707" width="4.52784" height="4.24834" rx="0.894388" transform="rotate(88 40.1715 45.6707)" fill="#202020"/>
<rect x="41.0569" y="51.9927" width="4.52784" height="4.24834" rx="0.894388" transform="rotate(48 41.0569 51.9927)" fill="#202020"/>
<rect x="45.798" y="56.2681" width="4.52784" height="4.24834" rx="0.894388" transform="rotate(8 45.798 56.2681)" fill="#202020"/>
</svg>
